<svg xmlns="http://www.w3.org/2000/svg" xmlns:xlink="http://www.w3.org/1999/xlink" width="816" zoomAndPan="magnify" viewBox="0 0 612 791.999994" height="1056" preserveAspectRatio="xMidYMid meet" version="1.0"><defs><clipPath id="f900d4efec"><path d="M 210.605469 36 L 245 36 L 245 105.75 L 210.605469 105.75 Z M 210.605469 36 " clip-rule="nonzero"/></clipPath><clipPath id="0a3f429fa6"><path d="M 210.605469 0 L 281 0 L 281 71 L 210.605469 71 Z M 210.605469 0 " clip-rule="nonzero"/></clipPath><clipPath id="10260f7d88"><path d="M 295 5 L 321.605469 5 L 321.605469 32 L 295 32 Z M 295 5 " clip-rule="nonzero"/></clipPath><clipPath id="d67eb98508"><path d="M 210.605469 0 L 245 0 L 245 23 L 210.605469 23 Z M 210.605469 0 " clip-rule="nonzero"/></clipPath><clipPath id="f6d3972d62"><path d="M 210.605469 0 L 224 0 L 224 26 L 210.605469 26 Z M 210.605469 0 " clip-rule="nonzero"/></clipPath><clipPath id="08d5707eb3"><path d="M 370 687 L 406.375 687 L 406.375 759 L 370 759 Z M 370 687 " clip-rule="nonzero"/></clipPath><clipPath id="4d1fa1dc01"><path d="M 333 723 L 406.375 723 L 406.375 792 L 333 792 Z M 333 723 " clip-rule="nonzero"/></clipPath><clipPath id="684483598a"><path d="M 290.875 763 L 318 763 L 318 791 L 290.875 791 Z M 290.875 763 " clip-rule="nonzero"/></clipPath><clipPath id="94ab9c6804"><path d="M 370 773 L 406.375 773 L 406.375 792 L 370 792 Z M 370 773 " clip-rule="nonzero"/></clipPath><clipPath id="1e27cd7a76"><path d="M 393 770 L 406.375 770 L 406.375 792 L 393 792 Z M 393 770 " clip-rule="nonzero"/></clipPath></defs><rect x="-61.2" width="734.4" fill="#ffffff" y="-79.199999" height="950.399992" fill-opacity="1"/><rect x="-61.2" width="734.4" fill="#ffffff" y="-79.199999" height="950.399992" fill-opacity="1"/><g clip-path="url(#f900d4efec)"><path fill="#015cfe" d="M 210.25 105.371094 L 210.25 36.257812 L 244.808594 70.816406 L 235.683594 79.941406 Z M 210.25 105.371094 " fill-opacity="1" fill-rule="nonzero"/></g><g clip-path="url(#0a3f429fa6)"><path fill="#0022af" d="M 210.25 70.054688 L 210.25 0.0234375 L 210.453125 0.0234375 L 210.480469 0 L 210.503906 0.0234375 L 280.28125 0.0234375 L 274.933594 5.375 L 263.101562 17.207031 L 260.085938 20.21875 L 254.699219 25.605469 L 237.726562 42.582031 L 227.148438 53.15625 Z M 210.25 70.054688 " fill-opacity="1" fill-rule="nonzero"/></g><g clip-path="url(#10260f7d88)"><path fill="#0022af" d="M 308.546875 5.523438 L 321.597656 18.570312 L 308.546875 31.621094 L 295.5 18.570312 Z M 308.546875 5.523438 " fill-opacity="1" fill-rule="nonzero"/></g><g clip-path="url(#d67eb98508)"><path fill="#015cfe" d="M 223.015625 22.546875 L 210.25 9.78125 L 210.25 0.0234375 L 210.453125 0.0234375 L 210.480469 0 L 210.503906 0.0234375 L 244.074219 0.0234375 L 244.808594 0.757812 Z M 223.015625 22.546875 " fill-opacity="1" fill-rule="nonzero"/></g><path fill="#0022af" d="M 291 16.492188 L 299.582031 25.074219 L 291 33.65625 L 282.417969 25.074219 Z M 291 16.492188 " fill-opacity="1" fill-rule="nonzero"/><g clip-path="url(#f6d3972d62)"><path fill="#29292b" d="M 210.480469 25.074219 L 210.25 24.84375 L 210.25 0.230469 L 210.453125 0.0234375 L 210.480469 0 L 210.503906 0.0234375 L 223.015625 12.539062 Z M 210.480469 25.074219 " fill-opacity="1" fill-rule="nonzero"/></g><path fill="#015cfe" d="M 276.128906 26.773438 L 267.285156 17.925781 L 264.832031 15.476562 L 249.378906 0.0234375 L 302.875 0.0234375 L 289.9375 12.964844 Z M 276.128906 26.773438 " fill-opacity="1" fill-rule="nonzero"/><path fill="#015cfe" d="M 257.953125 18.085938 L 276.125 36.257812 L 257.953125 54.433594 L 239.777344 36.257812 Z M 257.953125 18.085938 " fill-opacity="1" fill-rule="nonzero"/><path fill="#29292b" d="M 244.808594 48.242188 L 265.21875 68.652344 L 244.808594 89.0625 L 224.394531 68.652344 Z M 244.808594 48.242188 " fill-opacity="1" fill-rule="nonzero"/><g clip-path="url(#08d5707eb3)"><path fill="#0022af" d="M 406.523438 687.058594 L 406.523438 758.839844 L 370.632812 722.949219 Z M 406.523438 687.058594 " fill-opacity="1" fill-rule="nonzero"/></g><g clip-path="url(#4d1fa1dc01)"><path fill="#015cfe" d="M 406.523438 723.738281 L 406.523438 796.472656 L 406.3125 796.472656 L 406.285156 796.5 L 406.257812 796.472656 L 333.789062 796.472656 L 351.632812 778.628906 L 354.761719 775.496094 L 360.359375 769.902344 Z M 406.523438 723.738281 " fill-opacity="1" fill-rule="nonzero"/></g><g clip-path="url(#684483598a)"><path fill="#015cfe" d="M 304.433594 790.761719 L 290.878906 777.210938 L 304.433594 763.65625 L 317.988281 777.210938 Z M 304.433594 790.761719 " fill-opacity="1" fill-rule="nonzero"/></g><g clip-path="url(#94ab9c6804)"><path fill="#0022af" d="M 393.265625 773.082031 L 398.464844 778.277344 L 406.523438 786.339844 L 406.523438 796.472656 L 406.3125 796.472656 L 406.285156 796.5 L 406.257812 796.472656 L 371.394531 796.472656 L 370.632812 795.710938 Z M 393.265625 773.082031 " fill-opacity="1" fill-rule="nonzero"/></g><path fill="#015cfe" d="M 322.660156 779.371094 L 313.746094 770.457031 L 322.660156 761.542969 L 331.574219 770.457031 Z M 322.660156 779.371094 " fill-opacity="1" fill-rule="nonzero"/><g clip-path="url(#1e27cd7a76)"><path fill="#29292b" d="M 406.285156 770.457031 L 406.523438 770.695312 L 406.523438 796.261719 L 406.285156 796.5 L 406.257812 796.472656 L 393.265625 783.476562 Z M 406.285156 770.457031 " fill-opacity="1" fill-rule="nonzero"/></g><path fill="#0022af" d="M 338.105469 768.691406 L 347.289062 777.878906 L 365.882812 796.472656 L 310.324219 796.472656 Z M 338.105469 768.691406 " fill-opacity="1" fill-rule="nonzero"/><path fill="#0022af" d="M 356.980469 777.714844 L 338.105469 758.839844 L 356.980469 739.964844 L 375.855469 758.839844 Z M 356.980469 777.714844 " fill-opacity="1" fill-rule="nonzero"/><path fill="#29292b" d="M 370.632812 746.394531 L 349.433594 725.195312 L 370.632812 703.996094 L 391.832031 725.195312 Z M 370.632812 746.394531 " fill-opacity="1" fill-rule="nonzero"/></svg>