<svg xmlns="http://www.w3.org/2000/svg" xmlns:xlink="http://www.w3.org/1999/xlink" width="816" zoomAndPan="magnify" viewBox="0 0 612 791.999994" height="1056" preserveAspectRatio="xMidYMid meet" version="1.0"><defs><clipPath id="2b00e52903"><path d="M 210.605469 36 L 245 36 L 245 105.75 L 210.605469 105.75 Z M 210.605469 36 " clip-rule="nonzero"/></clipPath><clipPath id="c0bafcb79a"><path d="M 210.605469 0 L 281 0 L 281 71 L 210.605469 71 Z M 210.605469 0 " clip-rule="nonzero"/></clipPath><clipPath id="38a7f692d2"><path d="M 295 5 L 321.605469 5 L 321.605469 32 L 295 32 Z M 295 5 " clip-rule="nonzero"/></clipPath><clipPath id="d3e4c46035"><path d="M 210.605469 0 L 245 0 L 245 23 L 210.605469 23 Z M 210.605469 0 " clip-rule="nonzero"/></clipPath><clipPath id="e968098f26"><path d="M 210.605469 0 L 224 0 L 224 26 L 210.605469 26 Z M 210.605469 0 " clip-rule="nonzero"/></clipPath><clipPath id="cdd83ab944"><path d="M 361 687 L 397.375 687 L 397.375 759 L 361 759 Z M 361 687 " clip-rule="nonzero"/></clipPath><clipPath id="7424cc4792"><path d="M 324 723 L 397.375 723 L 397.375 792 L 324 792 Z M 324 723 " clip-rule="nonzero"/></clipPath><clipPath id="e25ae0048b"><path d="M 281.875 763 L 309 763 L 309 791 L 281.875 791 Z M 281.875 763 " clip-rule="nonzero"/></clipPath><clipPath id="869b8a42e6"><path d="M 361 773 L 397.375 773 L 397.375 792 L 361 792 Z M 361 773 " clip-rule="nonzero"/></clipPath><clipPath id="f289eac35d"><path d="M 384 770 L 397.375 770 L 397.375 792 L 384 792 Z M 384 770 " clip-rule="nonzero"/></clipPath></defs><rect x="-61.2" width="734.4" fill="#ffffff" y="-79.199999" height="950.399992" fill-opacity="1"/><rect x="-61.2" width="734.4" fill="#ffffff" y="-79.199999" height="950.399992" fill-opacity="1"/><g clip-path="url(#2b00e52903)"><path fill="#0022af" d="M 210.25 105.371094 L 210.25 36.257812 L 244.808594 70.816406 L 235.683594 79.941406 Z M 210.25 105.371094 " fill-opacity="1" fill-rule="nonzero"/></g><g clip-path="url(#c0bafcb79a)"><path fill="#015cfe" d="M 210.25 70.054688 L 210.25 0.0234375 L 210.453125 0.0234375 L 210.480469 0 L 210.503906 0.0234375 L 280.28125 0.0234375 L 274.933594 5.375 L 263.101562 17.207031 L 260.085938 20.21875 L 254.699219 25.605469 L 237.726562 42.582031 L 227.148438 53.15625 Z M 210.25 70.054688 " fill-opacity="1" fill-rule="nonzero"/></g><g clip-path="url(#38a7f692d2)"><path fill="#015cfe" d="M 308.546875 5.523438 L 321.597656 18.570312 L 308.546875 31.621094 L 295.5 18.570312 Z M 308.546875 5.523438 " fill-opacity="1" fill-rule="nonzero"/></g><g clip-path="url(#d3e4c46035)"><path fill="#0022af" d="M 223.015625 22.546875 L 210.25 9.78125 L 210.25 0.0234375 L 210.453125 0.0234375 L 210.480469 0 L 210.503906 0.0234375 L 244.074219 0.0234375 L 244.808594 0.757812 Z M 223.015625 22.546875 " fill-opacity="1" fill-rule="nonzero"/></g><path fill="#015cfe" d="M 291 16.492188 L 299.582031 25.074219 L 291 33.65625 L 282.417969 25.074219 Z M 291 16.492188 " fill-opacity="1" fill-rule="nonzero"/><g clip-path="url(#e968098f26)"><path fill="#29292b" d="M 210.480469 25.074219 L 210.25 24.84375 L 210.25 0.230469 L 210.453125 0.0234375 L 210.480469 0 L 210.503906 0.0234375 L 223.015625 12.539062 Z M 210.480469 25.074219 " fill-opacity="1" fill-rule="nonzero"/></g><path fill="#0022af" d="M 276.128906 26.773438 L 267.285156 17.925781 L 264.832031 15.476562 L 249.378906 0.0234375 L 302.875 0.0234375 L 289.9375 12.964844 Z M 276.128906 26.773438 " fill-opacity="1" fill-rule="nonzero"/><path fill="#0022af" d="M 257.953125 18.085938 L 276.125 36.257812 L 257.953125 54.433594 L 239.777344 36.257812 Z M 257.953125 18.085938 " fill-opacity="1" fill-rule="nonzero"/><path fill="#29292b" d="M 244.808594 48.242188 L 265.21875 68.652344 L 244.808594 89.0625 L 224.394531 68.652344 Z M 244.808594 48.242188 " fill-opacity="1" fill-rule="nonzero"/><g clip-path="url(#cdd83ab944)"><path fill="#0022af" d="M 397.523438 687.058594 L 397.523438 758.839844 L 361.632812 722.949219 Z M 397.523438 687.058594 " fill-opacity="1" fill-rule="nonzero"/></g><g clip-path="url(#7424cc4792)"><path fill="#015cfe" d="M 397.523438 723.738281 L 397.523438 796.472656 L 397.3125 796.472656 L 397.285156 796.5 L 397.257812 796.472656 L 324.789062 796.472656 L 342.632812 778.628906 L 345.761719 775.496094 L 351.359375 769.902344 Z M 397.523438 723.738281 " fill-opacity="1" fill-rule="nonzero"/></g><g clip-path="url(#e25ae0048b)"><path fill="#015cfe" d="M 295.433594 790.761719 L 281.878906 777.210938 L 295.433594 763.65625 L 308.988281 777.210938 Z M 295.433594 790.761719 " fill-opacity="1" fill-rule="nonzero"/></g><g clip-path="url(#869b8a42e6)"><path fill="#0022af" d="M 384.265625 773.082031 L 389.464844 778.277344 L 397.523438 786.339844 L 397.523438 796.472656 L 397.3125 796.472656 L 397.285156 796.5 L 397.257812 796.472656 L 362.394531 796.472656 L 361.632812 795.710938 Z M 384.265625 773.082031 " fill-opacity="1" fill-rule="nonzero"/></g><path fill="#015cfe" d="M 313.660156 779.371094 L 304.746094 770.457031 L 313.660156 761.542969 L 322.574219 770.457031 Z M 313.660156 779.371094 " fill-opacity="1" fill-rule="nonzero"/><g clip-path="url(#f289eac35d)"><path fill="#29292b" d="M 397.285156 770.457031 L 397.523438 770.695312 L 397.523438 796.261719 L 397.285156 796.5 L 397.257812 796.472656 L 384.265625 783.476562 Z M 397.285156 770.457031 " fill-opacity="1" fill-rule="nonzero"/></g><path fill="#0022af" d="M 329.105469 768.691406 L 338.289062 777.878906 L 356.882812 796.472656 L 301.324219 796.472656 Z M 329.105469 768.691406 " fill-opacity="1" fill-rule="nonzero"/><path fill="#0022af" d="M 347.980469 777.714844 L 329.105469 758.839844 L 347.980469 739.964844 L 366.855469 758.839844 Z M 347.980469 777.714844 " fill-opacity="1" fill-rule="nonzero"/><path fill="#29292b" d="M 361.632812 746.394531 L 340.433594 725.195312 L 361.632812 703.996094 L 382.832031 725.195312 Z M 361.632812 746.394531 " fill-opacity="1" fill-rule="nonzero"/></svg>