<svg xmlns="http://www.w3.org/2000/svg" xmlns:xlink="http://www.w3.org/1999/xlink" width="816" zoomAndPan="magnify" viewBox="0 0 612 791.999994" height="1056" preserveAspectRatio="xMidYMid meet" version="1.0"><defs><clipPath id="8e9285bd3b"><path d="M 174.3125 722 L 418.8125 722 L 418.8125 792 L 174.3125 792 Z M 174.3125 722 " clip-rule="nonzero"/></clipPath><clipPath id="e8a96020b2"><path d="M 174.605469 0 L 419.105469 0 L 419.105469 73 L 174.605469 73 Z M 174.605469 0 " clip-rule="nonzero"/></clipPath></defs><rect x="-61.2" width="734.4" fill="#ffffff" y="-79.199999" height="950.399992" fill-opacity="1"/><rect x="-61.2" width="734.4" fill="#ffffff" y="-79.199999" height="950.399992" fill-opacity="1"/><g clip-path="url(#8e9285bd3b)"><path fill="#015cfe" d="M 419.097656 803.023438 L 174.320312 803.023438 L 174.320312 771.1875 C 179.304688 760.480469 188.925781 744.136719 206.519531 736.113281 C 257.644531 712.796875 316.855469 786.730469 374.808594 765.488281 C 386.5 761.203125 403.625 751.035156 419.097656 722.636719 Z M 419.097656 803.023438 " fill-opacity="1" fill-rule="nonzero"/><path fill="#0022af" d="M 419.097656 803.023438 L 174.320312 803.023438 L 174.320312 771.1875 C 178.367188 765.898438 186.578125 756.433594 199.609375 750.261719 C 254.949219 724.058594 316.191406 795.679688 372.289062 774.363281 C 384.886719 769.574219 403.519531 757.703125 419.097656 722.632812 Z M 419.097656 803.023438 " fill-opacity="1" fill-rule="nonzero"/><path fill="#04006c" d="M 419.097656 803.023438 L 174.320312 803.023438 L 174.320312 771.1875 C 177.714844 767.726562 183.710938 762.304688 192.351562 758.09375 C 251.820312 729.109375 321.949219 813.367188 375.035156 791.730469 C 389.917969 785.664062 408.089844 769.398438 419.097656 722.636719 Z M 419.097656 803.023438 " fill-opacity="1" fill-rule="nonzero"/></g><g clip-path="url(#e8a96020b2)"><path fill="#015cfe" d="M 174.320312 -7.652344 L 419.097656 -7.652344 L 419.097656 24.183594 C 414.113281 34.890625 404.492188 51.234375 386.898438 59.257812 C 335.773438 82.574219 276.5625 8.640625 218.605469 29.882812 C 206.917969 34.167969 189.792969 44.335938 174.320312 72.734375 Z M 174.320312 -7.652344 " fill-opacity="1" fill-rule="nonzero"/><path fill="#0022af" d="M 174.320312 -7.652344 L 419.097656 -7.652344 L 419.097656 24.183594 C 415.050781 29.46875 406.839844 38.933594 393.808594 45.109375 C 338.464844 71.3125 277.226562 -0.3125 221.128906 21.007812 C 208.527344 25.796875 189.898438 37.664062 174.320312 72.734375 Z M 174.320312 -7.652344 " fill-opacity="1" fill-rule="nonzero"/><path fill="#04006c" d="M 174.320312 -7.652344 L 419.097656 -7.652344 L 419.097656 24.183594 C 415.699219 27.644531 409.707031 33.066406 401.066406 37.277344 C 341.597656 66.261719 271.46875 -17.996094 218.378906 3.640625 C 203.5 9.703125 185.328125 25.972656 174.320312 72.734375 Z M 174.320312 -7.652344 " fill-opacity="1" fill-rule="nonzero"/></g></svg>