<svg xmlns="http://www.w3.org/2000/svg" xmlns:xlink="http://www.w3.org/1999/xlink" width="816" zoomAndPan="magnify" viewBox="0 0 612 791.999994" height="1056" preserveAspectRatio="xMidYMid meet" version="1.0"><defs><clipPath id="67324b6947"><path d="M 210.605469 36 L 245 36 L 245 105.75 L 210.605469 105.75 Z M 210.605469 36 " clip-rule="nonzero"/></clipPath><clipPath id="4532ea5ef4"><path d="M 210.605469 0 L 281 0 L 281 71 L 210.605469 71 Z M 210.605469 0 " clip-rule="nonzero"/></clipPath><clipPath id="c35bf06974"><path d="M 295 5 L 321.605469 5 L 321.605469 32 L 295 32 Z M 295 5 " clip-rule="nonzero"/></clipPath><clipPath id="04826835df"><path d="M 210.605469 0 L 245 0 L 245 23 L 210.605469 23 Z M 210.605469 0 " clip-rule="nonzero"/></clipPath><clipPath id="ece31649a8"><path d="M 210.605469 0 L 224 0 L 224 26 L 210.605469 26 Z M 210.605469 0 " clip-rule="nonzero"/></clipPath><clipPath id="e2186af87b"><path d="M 357 658.015625 L 392.875 658.015625 L 392.875 730 L 357 730 Z M 357 658.015625 " clip-rule="nonzero"/></clipPath><clipPath id="3dc3d2404e"><path d="M 320 694 L 392.875 694 L 392.875 767.515625 L 320 767.515625 Z M 320 694 " clip-rule="nonzero"/></clipPath><clipPath id="9a343711df"><path d="M 277.375 734 L 305 734 L 305 762 L 277.375 762 Z M 277.375 734 " clip-rule="nonzero"/></clipPath><clipPath id="a0cda3e644"><path d="M 357 744 L 392.875 744 L 392.875 767.515625 L 357 767.515625 Z M 357 744 " clip-rule="nonzero"/></clipPath><clipPath id="7408dbe516"><path d="M 379 741 L 392.875 741 L 392.875 767.515625 L 379 767.515625 Z M 379 741 " clip-rule="nonzero"/></clipPath><clipPath id="acadadba64"><path d="M 296 739 L 353 739 L 353 767.515625 L 296 767.515625 Z M 296 739 " clip-rule="nonzero"/></clipPath></defs><rect x="-61.2" width="734.4" fill="#ffffff" y="-79.199999" height="950.399992" fill-opacity="1"/><rect x="-61.2" width="734.4" fill="#ffffff" y="-79.199999" height="950.399992" fill-opacity="1"/><g clip-path="url(#67324b6947)"><path fill="#0022af" d="M 210.25 105.371094 L 210.25 36.257812 L 244.808594 70.816406 L 235.683594 79.941406 Z M 210.25 105.371094 " fill-opacity="1" fill-rule="nonzero"/></g><g clip-path="url(#4532ea5ef4)"><path fill="#015cfe" d="M 210.25 70.054688 L 210.25 0.0234375 L 210.453125 0.0234375 L 210.480469 0 L 210.503906 0.0234375 L 280.28125 0.0234375 L 274.933594 5.375 L 263.101562 17.207031 L 260.085938 20.21875 L 254.699219 25.605469 L 237.726562 42.582031 L 227.148438 53.15625 Z M 210.25 70.054688 " fill-opacity="1" fill-rule="nonzero"/></g><g clip-path="url(#c35bf06974)"><path fill="#015cfe" d="M 308.546875 5.523438 L 321.597656 18.570312 L 308.546875 31.621094 L 295.5 18.570312 Z M 308.546875 5.523438 " fill-opacity="1" fill-rule="nonzero"/></g><g clip-path="url(#04826835df)"><path fill="#0022af" d="M 223.015625 22.546875 L 210.25 9.78125 L 210.25 0.0234375 L 210.453125 0.0234375 L 210.480469 0 L 210.503906 0.0234375 L 244.074219 0.0234375 L 244.808594 0.757812 Z M 223.015625 22.546875 " fill-opacity="1" fill-rule="nonzero"/></g><path fill="#015cfe" d="M 291 16.492188 L 299.582031 25.074219 L 291 33.65625 L 282.417969 25.074219 Z M 291 16.492188 " fill-opacity="1" fill-rule="nonzero"/><g clip-path="url(#ece31649a8)"><path fill="#29292b" d="M 210.480469 25.074219 L 210.25 24.84375 L 210.25 0.230469 L 210.453125 0.0234375 L 210.480469 0 L 210.503906 0.0234375 L 223.015625 12.539062 Z M 210.480469 25.074219 " fill-opacity="1" fill-rule="nonzero"/></g><path fill="#0022af" d="M 276.128906 26.773438 L 267.285156 17.925781 L 264.832031 15.476562 L 249.378906 0.0234375 L 302.875 0.0234375 L 289.9375 12.964844 Z M 276.128906 26.773438 " fill-opacity="1" fill-rule="nonzero"/><path fill="#0022af" d="M 257.953125 18.085938 L 276.125 36.257812 L 257.953125 54.433594 L 239.777344 36.257812 Z M 257.953125 18.085938 " fill-opacity="1" fill-rule="nonzero"/><path fill="#29292b" d="M 244.808594 48.242188 L 265.21875 68.652344 L 244.808594 89.0625 L 224.394531 68.652344 Z M 244.808594 48.242188 " fill-opacity="1" fill-rule="nonzero"/><g clip-path="url(#e2186af87b)"><path fill="#0022af" d="M 393.023438 658.078125 L 393.023438 729.859375 L 357.132812 693.96875 Z M 393.023438 658.078125 " fill-opacity="1" fill-rule="nonzero"/></g><g clip-path="url(#3dc3d2404e)"><path fill="#015cfe" d="M 393.023438 694.757812 L 393.023438 767.492188 L 392.8125 767.492188 L 392.785156 767.519531 L 392.757812 767.492188 L 320.289062 767.492188 L 341.261719 746.519531 L 346.859375 740.925781 L 364.488281 723.292969 Z M 393.023438 694.757812 " fill-opacity="1" fill-rule="nonzero"/></g><g clip-path="url(#9a343711df)"><path fill="#015cfe" d="M 290.933594 761.785156 L 277.378906 748.230469 L 290.933594 734.675781 L 304.488281 748.230469 Z M 290.933594 761.785156 " fill-opacity="1" fill-rule="nonzero"/></g><g clip-path="url(#a0cda3e644)"><path fill="#0022af" d="M 379.765625 744.101562 L 393.023438 757.359375 L 393.023438 767.492188 L 392.8125 767.492188 L 392.785156 767.519531 L 392.757812 767.492188 L 357.894531 767.492188 L 357.132812 766.734375 Z M 379.765625 744.101562 " fill-opacity="1" fill-rule="nonzero"/></g><path fill="#015cfe" d="M 309.160156 750.390625 L 300.246094 741.476562 L 309.160156 732.5625 L 318.074219 741.476562 Z M 309.160156 750.390625 " fill-opacity="1" fill-rule="nonzero"/><g clip-path="url(#7408dbe516)"><path fill="#29292b" d="M 392.785156 741.476562 L 393.023438 741.714844 L 393.023438 767.28125 L 392.785156 767.519531 L 392.757812 767.492188 L 379.765625 754.496094 L 384.964844 749.300781 Z M 392.785156 741.476562 " fill-opacity="1" fill-rule="nonzero"/></g><g clip-path="url(#acadadba64)"><path fill="#0022af" d="M 324.605469 739.714844 L 352.382812 767.492188 L 296.824219 767.492188 L 310.261719 754.054688 Z M 324.605469 739.714844 " fill-opacity="1" fill-rule="nonzero"/></g><path fill="#0022af" d="M 343.480469 748.734375 L 324.605469 729.859375 L 343.480469 710.984375 L 362.355469 729.859375 Z M 343.480469 748.734375 " fill-opacity="1" fill-rule="nonzero"/><path fill="#29292b" d="M 357.132812 717.417969 L 335.933594 696.21875 L 357.132812 675.019531 L 378.332031 696.21875 Z M 357.132812 717.417969 " fill-opacity="1" fill-rule="nonzero"/></svg>