<svg xmlns="http://www.w3.org/2000/svg" xmlns:xlink="http://www.w3.org/1999/xlink" width="816" zoomAndPan="magnify" viewBox="0 0 612 791.999994" height="1056" preserveAspectRatio="xMidYMid meet" version="1.0"><defs><clipPath id="74158530f0"><path d="M 205.730469 44 L 248 44 L 248 128.253906 L 205.730469 128.253906 Z M 205.730469 44 " clip-rule="nonzero"/></clipPath><clipPath id="0110d7c7c9"><path d="M 205.730469 0.00390625 L 292 0.00390625 L 292 86 L 205.730469 86 Z M 205.730469 0.00390625 " clip-rule="nonzero"/></clipPath><clipPath id="6a14b0646e"><path d="M 309 6 L 341.480469 6 L 341.480469 39 L 309 39 Z M 309 6 " clip-rule="nonzero"/></clipPath><clipPath id="f800930e07"><path d="M 205.730469 0.00390625 L 248 0.00390625 L 248 28 L 205.730469 28 Z M 205.730469 0.00390625 " clip-rule="nonzero"/></clipPath><clipPath id="34a0f87bfc"><path d="M 205.730469 0.00390625 L 222 0.00390625 L 222 31 L 205.730469 31 Z M 205.730469 0.00390625 " clip-rule="nonzero"/></clipPath><clipPath id="0222b75c78"><path d="M 253 0.00390625 L 319 0.00390625 L 319 33 L 253 33 Z M 253 0.00390625 " clip-rule="nonzero"/></clipPath><clipPath id="bf36372e25"><path d="M 393 663.742188 L 435.621094 663.742188 L 435.621094 748 L 393 748 Z M 393 663.742188 " clip-rule="nonzero"/></clipPath><clipPath id="5efe9c9c66"><path d="M 350 706 L 435.621094 706 L 435.621094 791.992188 L 350 791.992188 Z M 350 706 " clip-rule="nonzero"/></clipPath><clipPath id="88adad974c"><path d="M 299.871094 753 L 332 753 L 332 786 L 299.871094 786 Z M 299.871094 753 " clip-rule="nonzero"/></clipPath><clipPath id="d7c46b8f0b"><path d="M 393 764 L 435.621094 764 L 435.621094 791.992188 L 393 791.992188 Z M 393 764 " clip-rule="nonzero"/></clipPath><clipPath id="c6cc91fc2f"><path d="M 420 761 L 435.621094 761 L 435.621094 791.992188 L 420 791.992188 Z M 420 761 " clip-rule="nonzero"/></clipPath><clipPath id="3b0347b083"><path d="M 322 759 L 388 759 L 388 791.992188 L 322 791.992188 Z M 322 759 " clip-rule="nonzero"/></clipPath></defs><rect x="-61.2" width="734.4" fill="#ffffff" y="-79.199999" height="950.399992" fill-opacity="1"/><rect x="-61.2" width="734.4" fill="#ffffff" y="-79.199999" height="950.399992" fill-opacity="1"/><g clip-path="url(#74158530f0)"><path fill="#0022af" d="M 205.753906 128.433594 L 205.753906 44.195312 L 226.351562 64.792969 L 234.113281 72.558594 L 247.871094 86.316406 Z M 205.753906 128.433594 " fill-opacity="1" fill-rule="nonzero"/></g><g clip-path="url(#0110d7c7c9)"><path fill="#015cfe" d="M 205.753906 85.390625 L 205.753906 0.03125 L 206 0.03125 L 206.03125 0 L 206.0625 0.03125 L 291.113281 0.03125 L 284.589844 6.550781 L 259.929688 31.210938 L 239.242188 51.902344 L 226.351562 64.792969 L 222.648438 68.492188 L 217.382812 73.757812 L 216.867188 74.277344 Z M 205.753906 85.390625 " fill-opacity="1" fill-rule="nonzero"/></g><g clip-path="url(#6a14b0646e)"><path fill="#015cfe" d="M 325.5625 6.730469 L 341.46875 22.636719 L 325.5625 38.542969 L 309.65625 22.636719 Z M 325.5625 6.730469 " fill-opacity="1" fill-rule="nonzero"/></g><g clip-path="url(#f800930e07)"><path fill="#0022af" d="M 221.3125 27.484375 L 215.210938 21.382812 L 205.753906 11.921875 L 205.753906 0.03125 L 206 0.03125 L 206.03125 0 L 206.0625 0.03125 L 246.980469 0.03125 L 247.871094 0.921875 Z M 221.3125 27.484375 " fill-opacity="1" fill-rule="nonzero"/></g><path fill="#015cfe" d="M 304.171875 20.101562 L 314.632812 30.5625 L 304.171875 41.023438 L 293.714844 30.5625 Z M 304.171875 20.101562 " fill-opacity="1" fill-rule="nonzero"/><g clip-path="url(#34a0f87bfc)"><path fill="#29292b" d="M 206.03125 30.5625 L 205.753906 30.285156 L 205.753906 0.28125 L 206 0.03125 L 206.03125 0 L 221.3125 15.28125 Z M 206.03125 30.5625 " fill-opacity="1" fill-rule="nonzero"/></g><g clip-path="url(#0222b75c78)"><path fill="#0022af" d="M 286.046875 32.632812 L 275.269531 21.851562 L 272.277344 18.863281 L 253.445312 0.03125 L 318.648438 0.03125 Z M 286.046875 32.632812 " fill-opacity="1" fill-rule="nonzero"/></g><path fill="#0022af" d="M 263.894531 22.042969 L 286.046875 44.195312 L 263.894531 66.347656 L 241.742188 44.195312 Z M 263.894531 22.042969 " fill-opacity="1" fill-rule="nonzero"/><path fill="#29292b" d="M 247.871094 58.800781 L 272.75 83.679688 L 247.871094 108.558594 L 222.992188 83.679688 Z M 247.871094 58.800781 " fill-opacity="1" fill-rule="nonzero"/><g clip-path="url(#bf36372e25)"><path fill="#0022af" d="M 435.597656 663.558594 L 435.597656 747.800781 L 393.476562 705.679688 Z M 435.597656 663.558594 " fill-opacity="1" fill-rule="nonzero"/></g><g clip-path="url(#5efe9c9c66)"><path fill="#015cfe" d="M 435.597656 706.605469 L 435.597656 791.964844 L 435.347656 791.964844 L 435.316406 791.996094 L 435.289062 791.964844 L 350.238281 791.964844 Z M 435.597656 706.605469 " fill-opacity="1" fill-rule="nonzero"/></g><g clip-path="url(#88adad974c)"><path fill="#015cfe" d="M 315.785156 785.265625 L 299.882812 769.359375 L 315.785156 753.453125 L 331.691406 769.359375 Z M 315.785156 785.265625 " fill-opacity="1" fill-rule="nonzero"/></g><g clip-path="url(#d7c46b8f0b)"><path fill="#0022af" d="M 420.039062 764.511719 L 426.136719 770.613281 L 435.597656 780.074219 L 435.597656 791.964844 L 435.347656 791.964844 L 435.316406 791.996094 L 435.289062 791.964844 L 394.371094 791.964844 L 393.476562 791.074219 Z M 420.039062 764.511719 " fill-opacity="1" fill-rule="nonzero"/></g><path fill="#015cfe" d="M 337.175781 771.894531 L 326.714844 761.433594 L 337.175781 750.972656 L 347.636719 761.433594 Z M 337.175781 771.894531 " fill-opacity="1" fill-rule="nonzero"/><g clip-path="url(#c6cc91fc2f)"><path fill="#29292b" d="M 435.316406 761.433594 L 435.597656 761.710938 L 435.597656 791.714844 L 435.316406 791.996094 L 435.289062 791.964844 L 420.039062 776.714844 L 426.136719 770.613281 Z M 435.316406 761.433594 " fill-opacity="1" fill-rule="nonzero"/></g><g clip-path="url(#3b0347b083)"><path fill="#0022af" d="M 355.304688 759.363281 L 366.082031 770.144531 L 369.070312 773.132812 L 387.90625 791.964844 L 322.703125 791.964844 Z M 355.304688 759.363281 " fill-opacity="1" fill-rule="nonzero"/></g><path fill="#0022af" d="M 377.457031 769.953125 L 355.304688 747.800781 L 377.457031 725.648438 L 399.609375 747.800781 Z M 377.457031 769.953125 " fill-opacity="1" fill-rule="nonzero"/><path fill="#29292b" d="M 393.476562 733.195312 L 368.597656 708.316406 L 393.476562 683.4375 L 418.355469 708.316406 Z M 393.476562 733.195312 " fill-opacity="1" fill-rule="nonzero"/></svg>